<svg xmlns="http://www.w3.org/2000/svg" width="1400" height="420" viewBox="0 0 1400 420">
  <defs>
    <linearGradient id="bg" x1="0" y1="0" x2="1" y2="1">
      <stop offset="0%" stop-color="#141922"/>
      <stop offset="55%" stop-color="#202733"/>
      <stop offset="100%" stop-color="#11151c"/>
    </linearGradient>
    <radialGradient id="beam1" cx="45%" cy="0%" r="70%">
      <stop offset="0%" stop-color="#f2a340" stop-opacity="0.46"/>
      <stop offset="58%" stop-color="#f2a340" stop-opacity="0.06"/>
      <stop offset="100%" stop-color="#f2a340" stop-opacity="0"/>
    </radialGradient>
    <radialGradient id="beam2" cx="78%" cy="8%" r="60%">
      <stop offset="0%" stop-color="#56b6c2" stop-opacity="0.34"/>
      <stop offset="65%" stop-color="#56b6c2" stop-opacity="0.05"/>
      <stop offset="100%" stop-color="#56b6c2" stop-opacity="0"/>
    </radialGradient>
  </defs>
  <rect width="1400" height="420" fill="url(#bg)"/>
  <rect width="1400" height="420" fill="url(#beam1)"/>
  <rect width="1400" height="420" fill="url(#beam2)"/>
  <path d="M0 282 C110 250 210 300 330 272 C490 236 620 285 745 258 C900 225 1010 288 1160 260 C1262 240 1340 260 1400 245 L1400 420 L0 420 Z" fill="#0c1016" opacity="0.86"/>
  <path d="M0 326 C130 296 255 332 390 306 C560 275 715 334 858 303 C1020 268 1170 326 1400 292 L1400 420 L0 420 Z" fill="#080b10" opacity="0.92"/>
  <g opacity="0.65">
    <circle cx="92" cy="340" r="12" fill="#1f2630"/>
    <circle cx="132" cy="334" r="15" fill="#252d38"/>
    <circle cx="188" cy="348" r="11" fill="#1f2630"/>
    <circle cx="244" cy="333" r="16" fill="#252d38"/>
    <circle cx="318" cy="350" r="12" fill="#1f2630"/>
    <circle cx="396" cy="330" r="15" fill="#252d38"/>
    <circle cx="484" cy="342" r="13" fill="#1f2630"/>
    <circle cx="580" cy="334" r="15" fill="#252d38"/>
    <circle cx="690" cy="347" r="12" fill="#1f2630"/>
    <circle cx="790" cy="332" r="16" fill="#252d38"/>
    <circle cx="892" cy="345" r="12" fill="#1f2630"/>
    <circle cx="998" cy="331" r="15" fill="#252d38"/>
    <circle cx="1108" cy="344" r="13" fill="#1f2630"/>
    <circle cx="1218" cy="335" r="16" fill="#252d38"/>
    <circle cx="1322" cy="348" r="12" fill="#1f2630"/>
  </g>
  <g stroke="#f2a340" stroke-width="4" stroke-linecap="round" opacity="0.42">
    <path d="M520 88 L432 316"/>
    <path d="M612 72 L620 316"/>
    <path d="M704 88 L810 316"/>
  </g>
  <g stroke="#56b6c2" stroke-width="4" stroke-linecap="round" opacity="0.32">
    <path d="M920 72 L816 318"/>
    <path d="M1018 92 L1032 318"/>
    <path d="M1112 76 L1215 318"/>
  </g>
</svg>
